<svg width="28" height="21" viewBox="0 0 28 21" fill="none" xmlns="http://www.w3.org/2000/svg">
<path d="M4.29673 1.74081C6.08135 0.935097 7.99508 0.341457 9.99605 0.00142669C10.0325 -0.00513823 10.0689 0.011274 10.0876 0.0440448C10.3338 0.4748 10.6064 1.03669 10.7973 1.47837C12.9494 1.16132 15.0906 1.16132 17.1986 1.47837C17.3895 1.0269 17.672 0.4748 17.9193 0.0440448C17.938 0.0123503 17.9745 -0.00406201 18.0109 0.00142669C20.0107 0.340327 21.9244 0.933967 23.7102 1.74081C23.7257 1.74737 23.7389 1.75829 23.7477 1.7725C27.3777 7.10864 28.3721 12.3136 27.8843 17.4541C27.8821 17.4792 27.8677 17.5033 27.8479 17.5185C25.4529 19.2492 23.133 20.2998 20.8562 20.9962C20.8198 21.0071 20.7811 20.994 20.758 20.9645C20.2194 20.2408 19.7393 19.4777 19.3277 18.6752C19.3034 18.6282 19.3266 18.5725 19.3762 18.5539C20.1377 18.2696 20.8628 17.923 21.5604 17.5295C21.6156 17.4978 21.62 17.4202 21.5692 17.383C21.4224 17.2748 21.2756 17.1622 21.1354 17.0485C21.11 17.0277 21.0747 17.0233 21.0449 17.0364C16.4625 19.095 11.5015 19.095 6.97324 17.0364C6.94344 17.0222 6.90811 17.0266 6.88164 17.0473C6.74142 17.161 6.59464 17.2747 6.44677 17.3829C6.39602 17.4201 6.39935 17.4978 6.45448 17.5295C7.15202 17.9307 7.87712 18.2696 8.63974 18.5527C8.68939 18.5713 8.71149 18.6282 8.68715 18.6752C8.26666 19.4765 7.78656 20.2396 7.25795 20.9634C7.23585 20.994 7.19615 21.0071 7.15973 20.9961C4.87188 20.2998 2.55192 19.2491 0.156986 17.5185C0.135986 17.5032 0.122751 17.4802 0.120564 17.4551C-0.46328 11.5122 1.09843 6.34986 4.26041 1.77352C4.26807 1.75829 4.28131 1.74737 4.29673 1.74081ZM18.6432 14.3241C20.0228 14.3241 21.1596 13.0778 21.1596 11.5472C21.1596 10.0166 20.0449 8.77037 18.6432 8.77037C17.2306 8.77037 16.1048 10.0276 16.1269 11.5472C16.1269 13.0778 17.2417 14.3241 18.6432 14.3241ZM9.33941 14.3241C10.719 14.3241 11.8558 13.0778 11.8558 11.5472C11.8558 10.0166 10.7411 8.77037 9.33941 8.77037C7.92672 8.77037 6.80098 10.0276 6.82302 11.5472C6.82302 13.0778 7.92667 14.3241 9.33941 14.3241Z" fill="#fff"/>
</svg>
