<svg width="45" height="26" viewBox="0 0 45 26" fill="none" xmlns="http://www.w3.org/2000/svg">
<path d="M25.3825 12.7783C25.3825 19.8356 19.7004 25.5567 12.6912 25.5567C5.68204 25.5567 0 19.8356 0 12.7783C0 5.72107 5.68204 0 12.6912 0C19.7003 0 25.3825 5.72107 25.3825 12.7783Z" fill="#fff"/>
<path d="M39.305 12.7783C39.305 19.4215 36.4639 24.8068 32.9594 24.8068C29.4548 24.8068 26.6138 19.4215 26.6138 12.7783C26.6138 6.13508 29.4548 0.749756 32.9594 0.749756C36.464 0.749756 39.305 6.13508 39.305 12.7783Z" fill="#fff"/>
<path d="M45 12.7783C45 18.7303 44.0008 23.5553 42.7682 23.5553C41.5356 23.5553 40.5365 18.7303 40.5365 12.7783C40.5365 6.82624 41.5356 2.00122 42.7682 2.00122C44.0008 2.00122 45 6.82624 45 12.7783Z" fill="#fff"/>
</svg>
